{
    "asset" : {
        "generator" : "Khronos glTF Blender I/O v0.9.36",
        "version" : "2.0"
    },
    "scene" : 0,
    "scenes" : [
        {
            "name" : "Scene",
            "nodes" : [
                0
            ]
        }
    ],
    "nodes" : [
        {
            "mesh" : 0,
            "name" : "Body",
            "rotation" : [
                0.7071068286895752,
                0,
                0,
                0.7071067094802856
            ],
            "scale" : [
                0.025370750576257706,
                0.025370750576257706,
                0.025370750576257706
            ]
        }
    ],
    "meshes" : [
        {
            "name" : "Realistic_White_Male_Low_Poly",
            "primitives" : [
                {
                    "attributes" : {
                        "POSITION" : 0,
                        "NORMAL" : 1
                    },
                    "indices" : 2
                }
            ]
        }
    ],
    "accessors" : [
        {
            "bufferView" : 0,
            "componentType" : 5126,
            "count" : 8104,
            "max" : [
                16.815303802490234,
                4.698974132537842,
                -29.707050323486328
            ],
            "min" : [
                -16.813566207885742,
                -6.543439865112305,
                -62.44352340698242
            ],
            "type" : "VEC3"
        },
        {
            "bufferView" : 1,
            "componentType" : 5126,
            "count" : 8104,
            "type" : "VEC3"
        },
        {
            "bufferView" : 2,
            "componentType" : 5123,
            "count" : 12156,
            "type" : "SCALAR"
        }
    ],
    "bufferViews" : [
        {
            "buffer" : 0,
            "byteLength" : 97248,
            "byteOffset" : 0
        },
        {
            "buffer" : 0,
            "byteLength" : 97248,
            "byteOffset" : 97248
        },
        {
            "buffer" : 0,
            "byteLength" : 24312,
            "byteOffset" : 194496
        }
    ],
    "buffers" : [
        {
            "byteLength" : 218808,
            "uri" : "data:application/octet-stream;base64,"
        }
    ]
}
