{
    "asset" : {
        "generator" : "Khronos glTF Blender I/O v0.9.36",
        "version" : "2.0"
    },
    "scene" : 0,
    "scenes" : [
        {
            "name" : "Scene",
            "nodes" : [
                0
            ]
        }
    ],
    "nodes" : [
        {
            "mesh" : 0,
            "name" : "Head",
            "rotation" : [
                0.7071068286895752,
                0,
                0,
                0.7071067094802856
            ],
            "scale" : [
                0.025370750576257706,
                0.025370750576257706,
                0.025370750576257706
            ]
        }
    ],
    "meshes" : [
        {
            "name" : "Realistic_White_Male_Low_Poly.002",
            "primitives" : [
                {
                    "attributes" : {
                        "POSITION" : 0,
                        "NORMAL" : 1
                    },
                    "indices" : 2
                }
            ]
        }
    ],
    "accessors" : [
        {
            "bufferView" : 0,
            "componentType" : 5126,
            "count" : 5872,
            "max" : [
                3.938040018081665,
                6.235324859619141,
                -61.208595275878906
            ],
            "min" : [
                -3.944766044616699,
                -3.4932010173797607,
                -72.01109313964844
            ],
            "type" : "VEC3"
        },
        {
            "bufferView" : 1,
            "componentType" : 5126,
            "count" : 5872,
            "type" : "VEC3"
        },
        {
            "bufferView" : 2,
            "componentType" : 5123,
            "count" : 8808,
            "type" : "SCALAR"
        }
    ],
    "bufferViews" : [
        {
            "buffer" : 0,
            "byteLength" : 70464,
            "byteOffset" : 0
        },
        {
            "buffer" : 0,
            "byteLength" : 70464,
            "byteOffset" : 70464
        },
        {
            "buffer" : 0,
            "byteLength" : 17616,
            "byteOffset" : 140928
        }
    ],
    "buffers" : [
        {
            "byteLength" : 158544,
            "uri" : "data:application/octet-stream;base64,"
        }
    ]
}
