{
    "asset" : {
        "generator" : "Khronos glTF Blender I/O v0.9.36",
        "version" : "2.0"
    },
    "scene" : 0,
    "scenes" : [
        {
            "name" : "Scene",
            "nodes" : [
                0
            ]
        }
    ],
    "nodes" : [
        {
            "mesh" : 0,
            "name" : "Legs",
            "rotation" : [
                0.7071068286895752,
                0,
                0,
                0.7071067094802856
            ],
            "scale" : [
                0.025370750576257706,
                0.025370750576257706,
                0.025370750576257706
            ]
        }
    ],
    "meshes" : [
        {
            "name" : "Realistic_White_Male_Low_Poly.001",
            "primitives" : [
                {
                    "attributes" : {
                        "POSITION" : 0,
                        "NORMAL" : 1
                    },
                    "indices" : 2
                }
            ]
        }
    ],
    "accessors" : [
        {
            "bufferView" : 0,
            "componentType" : 5126,
            "count" : 5792,
            "max" : [
                8.184584617614746,
                6.678390026092529,
                0.01308200042694807
            ],
            "min" : [
                -8.182286262512207,
                -5.927439212799072,
                -39.544429779052734
            ],
            "type" : "VEC3"
        },
        {
            "bufferView" : 1,
            "componentType" : 5126,
            "count" : 5792,
            "type" : "VEC3"
        },
        {
            "bufferView" : 2,
            "componentType" : 5123,
            "count" : 8688,
            "type" : "SCALAR"
        }
    ],
    "bufferViews" : [
        {
            "buffer" : 0,
            "byteLength" : 69504,
            "byteOffset" : 0
        },
        {
            "buffer" : 0,
            "byteLength" : 69504,
            "byteOffset" : 69504
        },
        {
            "buffer" : 0,
            "byteLength" : 17376,
            "byteOffset" : 139008
        }
    ],
    "buffers" : [
        {
            "byteLength" : 156384,
            "uri" : "data:application/octet-stream;base64,"
        }
    ]
}
